<?xml version="1.0" standalone="no"?>
<!DOCTYPE svg PUBLIC "-//W3C//DTD SVG 20010904//EN"
 "http://www.w3.org/TR/2001/REC-SVG-20010904/DTD/svg10.dtd">
<svg version="1.0" xmlns="http://www.w3.org/2000/svg"
 width="300.000000pt" height="300.000000pt" viewBox="0 0 300.000000 300.000000"
 preserveAspectRatio="xMidYMid meet">

<g transform="translate(0.000000,300.000000) scale(0.100000,-0.100000)"
fill="#000000" stroke="none">
<path d="M2150 1624 c-167 -45 -269 -169 -278 -340 -10 -192 80 -325 288 -422
246 -113 281 -133 300 -165 27 -44 26 -107 -2 -142 -48 -61 -171 -83 -273 -49
-46 16 -122 80 -156 131 l-14 23 -112 -66 c-62 -36 -113 -72 -113 -79 0 -21
77 -117 123 -153 113 -90 222 -126 382 -126 123 0 194 16 288 67 135 71 206
227 180 394 -27 175 -120 267 -388 384 -188 82 -225 113 -225 189 0 136 204
164 286 40 25 -37 29 -39 48 -27 12 8 59 38 106 67 47 30 87 55 88 56 11 8
-16 52 -63 102 -85 92 -190 133 -338 131 -40 0 -97 -7 -127 -15z"/>
<path d="M1355 1618 c-3 -7 -6 -242 -7 -523 -3 -471 -4 -513 -21 -543 -22 -39
-69 -62 -129 -62 -56 0 -99 27 -144 90 -20 27 -37 50 -39 50 -5 0 -208 -121
-218 -130 -14 -13 30 -86 83 -139 145 -145 425 -171 597 -55 55 38 89 81 125
159 23 50 23 50 26 608 l3 557 -136 0 c-99 0 -137 -3 -140 -12z"/>
</g>
</svg>
