<?xml version="1.0" standalone="yes"?>
<svg xmlns="http://www.w3.org/2000/svg" width="1280" height="783">
<path style="fill:#010101; stroke:none;" d="M0 0L0 256L1 256C7.13617 245.611 21.8712 240.454 32 234.576C56.2801 220.484 80.7197 206.667 105 192.576C113.879 187.422 128.215 175.003 139 176.369C148.188 177.533 158.172 185.758 166 190.397C182.86 200.388 199.963 210.033 217 219.719C229.704 226.942 242.322 234.31 255 241.579C261.382 245.238 269.058 248.428 272.991 255.001C276.859 261.467 275 271.738 275 279L275 333L275 429C275 436.765 278.644 456.55 267.996 458.778C264.097 459.594 260.184 456.662 257 454.85L232 440.579C221.654 434.647 211.368 428.614 201 422.719C195.428 419.551 188.479 416.663 185.009 410.985C180.622 403.806 183 391.132 183 383C183 360.973 186.481 335.678 182.671 314C181.961 309.956 180.029 306.212 176.895 303.529C167.424 295.422 143.637 279.23 131 284.353C120.447 288.63 98.6908 298.587 93.4568 309.001C90.1552 315.57 92 325.825 92 333L92 386C92 393.41 93.7152 403.264 90.0802 409.985C85.1403 419.12 71.6496 423.912 63 428.85L20 453.579C13.3631 457.383 6.92184 462.26 1 455L0 455L0 783L624 783L624 782C611.865 778.158 599.927 768.743 589 762.2C586.766 760.862 577.877 757.094 579.921 753.459C581.388 750.851 586.459 749.855 589 748.691C592.618 747.035 596.822 743.852 601 744.804C611.54 747.205 624.765 764.983 636 760.621C664.691 749.482 692.278 728.189 719 712.85C727.177 708.156 745.137 701.996 749.972 693.787C753.154 688.386 751 677.133 751 671L751 614L751 574C751 569.119 752.457 561.359 749.397 557.21C744.241 550.22 731.422 545.883 724 541.576C703.022 529.4 682.065 517.175 661 505.15C653.921 501.109 640.275 489.357 632 490.039C625.543 490.572 617.547 497.398 612 500.579C596.306 509.576 580.727 518.778 565 527.719C553.3 534.371 541.689 541.177 530 547.85C525.373 550.49 517.711 553.246 515.028 558.104C512.025 563.542 514 573.92 514 580L514 632L514 676C514 680.988 512.418 689.357 515.028 693.787C517.429 697.863 524.053 700.134 528 702.424C539.263 708.961 564.678 727.493 572.991 707C576.946 697.249 574 681.452 574 671L574 591C574 578.528 570.427 566.969 586 567C588.659 567.005 592.326 566.533 594.397 568.603C597.905 572.112 596 582.41 596 587L596 640C596 663.149 600.867 692.688 594.572 715C589.317 733.624 570.978 741.101 553 737.916C546.236 736.718 540.068 733.872 534 730.742C524.266 725.72 514.106 720.137 505 714.046C490.459 704.319 492 689.417 492 674L492 582C492 568.769 489.209 552.574 499.185 542.093C507.094 533.785 520.124 528.676 530 523C552.007 510.352 574.113 497.844 596 484.989C607.176 478.425 620.456 467.443 634 468.041C647.172 468.622 660.885 480.386 672 486.719C691.723 497.957 711.27 509.495 731 520.719C741.927 526.935 755.622 532.689 764.826 541.326C772.801 548.809 773 558.867 773 569L773 613L773 672C773 682.089 774.569 693.613 770.081 703C764.074 715.562 746.407 721.804 735 728.424C704.468 746.144 673.585 768.43 641 782L641 783L1280 783L1280 302L1279 302C1276.19 310.274 1268.04 313.609 1261 317.799C1245.11 327.264 1229.07 336.562 1213 345.719C1207.22 349.01 1196.7 358.271 1190.23 352.566C1181.66 345.006 1188.68 322.351 1186.77 312.004C1185.76 306.505 1180.4 304.228 1176 301.719C1166.17 296.117 1147.33 279.43 1136 285.441C1126.84 290.297 1117.99 295.834 1109 301C1105.29 303.133 1100.18 305.151 1098.03 309.093C1094.16 316.203 1097 331 1097 339C1097 344.928 1094.93 355.804 1098.6 360.79C1103.56 367.504 1115.85 371.766 1123 375.85C1142.36 386.9 1161.64 398.098 1181 409.15C1193.35 416.2 1205.73 423.23 1218 430.425C1222.28 432.936 1228.82 437.066 1225.96 442.985C1221.34 452.539 1201 459.361 1192 464.306C1181.3 470.183 1170.66 476.191 1160 482.14C1154.91 484.979 1149.01 489.464 1143 489.721C1134.45 490.088 1125.17 482.13 1118 478.231C1098.12 467.423 1078.63 455.831 1059 444.579C1046.7 437.525 1034.34 430.563 1022 423.576C1015.93 420.14 1009.07 416.891 1006.34 410C1002.22 399.598 1005 384.065 1005 373L1005 293C1005 282.131 1001.57 264.16 1008.57 255.043C1014.07 247.879 1025.28 243.559 1033 239.15C1050.71 229.039 1068.31 218.723 1086 208.579C1098.35 201.498 1110.77 194.486 1123 187.201C1128.86 183.712 1135.91 178.086 1143 178.086C1150.72 178.086 1158.55 184.605 1165 188.281C1181.74 197.818 1198.26 207.743 1215 217.281C1229.07 225.299 1242.93 233.698 1257 241.719C1265.12 246.348 1274.53 250.382 1279 259L1280 259L1280 0L865 0L865 1C883.104 11.5766 901.619 21.5996 920 31.6945C927.657 35.8995 938.737 39.9831 943.08 48.0146C946.834 54.9546 945 65.3427 945 73L945 127L945 328L945 388C945 395.733 947.102 407.128 942.991 413.999C936.722 424.477 919.332 430.832 909 436.719C887.281 449.094 865.477 461.41 844 474.201C834.011 480.149 821.47 490.266 810 492.606C802.707 494.093 795.959 488.838 790 485.421C776.306 477.571 762.72 469.524 749 461.719C731.939 452.014 715.063 441.982 698 432.281C690.106 427.793 678.195 423.301 672.653 415.907C665.854 406.837 669 389.661 669 379L669 292C669 281.589 666.125 265.955 672.652 257.043C680.25 246.669 698.952 240.014 710 233.719C731.409 221.521 752.582 208.903 774 196.719C783.031 191.582 792.996 183.497 803 180.638C814.279 177.415 828.838 189.749 838 195.201C841.833 197.482 848.472 202.472 851.821 196.851C857.127 187.946 853 166.292 853 156L853 49C853 37.4393 847.922 9.01129 857 1L834 0L783 0L608 0L0 0z"/>
<path style="fill:#333333; stroke:none;" d="M857.109 0.74231C852.288 2.80475 853.002 8.68347 853 13L853 48L853 151C853 163.378 856.873 183.484 852.258 194.98C849.292 202.367 842.527 197.286 838 194.603C828.066 188.717 814.279 177.111 802 180.638C786.283 185.153 770.189 198.444 756 206.579C737.974 216.913 720.063 227.45 702 237.719C693.17 242.74 681.599 247.368 674.214 254.379C665.634 262.524 669 280.326 669 291L669 381C669 391.231 665.894 408.216 672.653 416.815C678.086 423.728 689.466 427.997 697 432.281C714.396 442.171 731.613 452.374 749 462.281C762.717 470.096 776.312 478.133 790 486C797.129 490.097 804.463 495.011 813 492.034C824.815 487.914 836.234 479.334 847 473.011C867.561 460.935 888.274 449.071 909 437.281C919.071 431.552 938.159 424.711 943.543 413.999C946.845 407.43 945 397.175 945 390L945 336L945 143L945 75C945 66.3784 947.378 53.6406 942.517 46.0934C939.264 41.0426 933.042 38.4632 928 35.5787C917.411 29.5212 906.717 23.597 896 17.7693C887.241 13.0064 867.399 -3.66028 857.109 0.74231M134 176.53C122.81 179.044 111.866 188.098 102 193.719C78.9544 206.85 55.8179 219.875 33 233.397C23.8633 238.811 5.60228 244.83 1.08951 255.015C-2.67805 263.517 0 277.794 0 287L0 360L0 436C0 442.59 -2.88662 457.455 6.01543 459.334C15.8849 461.418 34.6613 445.859 43 440.988C53.295 434.975 63.645 429.061 74 423.15C79.3761 420.082 86.0526 417.292 89.517 411.907C94.3755 404.354 92 391.626 92 383C92 360.83 88.7627 335.88 92.2137 314C94.2767 300.921 115.748 293.212 126 287.424C130.649 284.8 135.516 282.092 141 283.639C147.337 285.427 153.324 290.168 159 293.421C165.964 297.414 175.553 301.018 180.005 308.015C184.824 315.587 183 326.444 183 335L183 386C183 393.216 181.234 403.226 184.009 409.996C186.431 415.904 192.807 418.601 198 421.579L231 440.579C239.582 445.499 257.883 460.903 267.996 459.242C277.723 457.645 275 442.926 275 436L275 363L275 286C275 276.91 277.824 262.014 272.991 254.004C268.242 246.132 256.706 241.997 249 237.579C229.975 226.672 211.061 215.562 192 204.719C179.296 197.492 166.692 190.094 154 182.85C147.832 179.329 141.463 174.853 134 176.53M1138 178.638C1127.27 181.719 1116.67 190.332 1107 195.85C1084.93 208.446 1063.03 221.338 1041 234C1031.22 239.621 1013.04 245.985 1007.28 256.015C1001.26 266.505 1005 286.21 1005 298L1005 371C1005 382.782 1003.09 396.447 1005.48 408C1008.03 420.363 1025.19 425.799 1035 431.421C1061.96 446.879 1088.76 462.733 1116 477.694C1125.7 483.021 1137.36 493.12 1149 488.521C1161.13 483.729 1172.57 475.583 1184 469.306C1194.35 463.62 1204.69 457.897 1215 452.14C1218.99 449.91 1224.7 447.608 1226.39 442.985C1228.21 438.024 1224.89 434.126 1220.98 431.619C1211.64 425.613 1201.58 420.616 1192 414.989C1169.45 401.748 1146.71 388.811 1124 375.85C1116.68 371.67 1102.1 366.646 1098.03 358.957C1094.96 353.166 1097 342.428 1097 336C1097 328.584 1094.24 314.12 1099.32 308.185C1106.31 300.014 1120.74 294.799 1130 289.424C1133.42 287.44 1137.87 283.816 1142 283.951C1150.03 284.212 1161.2 293.572 1168 297.603C1173.67 300.964 1183.68 304.474 1186.26 311.015C1190.36 321.443 1180.49 345.917 1190.23 353.258C1197 358.36 1207.23 349.564 1213 346.281C1228.08 337.705 1242.96 328.785 1258 320.15C1264.51 316.415 1273.99 312.695 1277.91 305.985C1281.63 299.611 1280 290.091 1280 283C1280 275.058 1282.24 263.041 1277.99 256.004C1272.93 247.61 1260.17 243.064 1252 238.201C1230.83 225.592 1209.37 213.417 1188 201.15C1175.4 193.918 1153.27 174.25 1138 178.638z"/>
<path style="fill:#69a45c; stroke:none;" d="M343 250L359 281L336 271C331.887 303.542 335 338.186 335 371C335 384.138 331.771 402.116 338 414L356.281 384L387 331L452.769 451L468.745 480L476.21 489.468L499 477.799L557 444L557 443L552 445L552 313L564 329C574.718 310.654 584.811 291.767 594.78 273C597.072 268.685 605.624 258.14 603.748 253.185C601.202 246.463 584.04 240.397 578 236.799C563.836 228.364 549.554 219.673 535 211.942C524.852 206.552 511.079 201.191 503 193C491.268 191.186 482.714 178.203 470 179.12C457.323 180.033 440.806 193.769 430 200.201C401.683 217.056 372.851 236.063 343 250z"/>
<path style="fill:#3f873d; stroke:none;" d="M475 179L475 180L478 180L475 179z"/>
<path style="fill:#01ff01; stroke:none;" d="M464 180L465 181L464 180z"/>
<path style="fill:#3f873d; stroke:none;" d="M478.667 180.333L479.333 180.667L478.667 180.333M480.667 181.333L481.333 181.667L480.667 181.333M482 182L483 183L482 182z"/>
<path style="fill:#01ff01; stroke:none;" d="M483 182L484 183L483 182z"/>
<path style="fill:#3f873d; stroke:none;" d="M459 183L460 184L459 183M484 183L485 184L484 183M486 184L487 185L486 184M487.667 185.333L488.333 185.667L487.667 185.333M489 186L490 187L489 186M452 187L453 188L452 187M491 187L492 188L491 187M493 188L494 189L493 188M494.667 189.333L495.333 189.667L494.667 189.333M496 190L497 191L496 190z"/>
<path style="fill:#01ff01; stroke:none;" d="M445 191L446 192L445 191z"/>
<path style="fill:#3f873d; stroke:none;" d="M498 191L499 192L498 191M500 192L501 193L500 192M501 193L502 194L501 193M440 194L441 195L440 194M503 194L504 195L503 194M505 195L506 196L505 195M507 196L508 197L507 196z"/>
<path style="fill:#01ff01; stroke:none;" d="M509 197L510 198L509 197z"/>
<path style="fill:#3f873d; stroke:none;" d="M510 198L511 199L510 198M512 199L513 200L512 199M426 202L427 203L426 202M517 202L518 203L517 202M521 204L522 205L521 204M522 205L523 206L522 205z"/>
<path style="fill:#01ff01; stroke:none;" d="M419 206L420 207L419 206z"/>
<path style="fill:#3f873d; stroke:none;" d="M524 206L525 207L524 206M526 207L527 208L526 207M528 208L529 209L528 208M414 209L415 210L414 209M531 210L532 211L531 210z"/>
<path style="fill:#01ff01; stroke:none;" d="M393 221L394 222L393 221z"/>
<path style="fill:#3f873d; stroke:none;" d="M552 222L553 223L552 222M554 223L555 224L554 223z"/>
<path style="fill:#01ff01; stroke:none;" d="M561 227L562 228L561 227M367 236L368 237L367 236z"/>
<path style="fill:#3f873d; stroke:none;" d="M580 238L581 239L580 238z"/>
<path style="fill:#01ff01; stroke:none;" d="M587 242L588 243L587 242z"/>
<path style="fill:#3f873d; stroke:none;" d="M592 245L593 246L592 245M335 275L336 275L336 271L359 281L343 251C334.173 256.021 335 266.097 335 275z"/>
<path style="fill:#69a45c; stroke:none;" d="M338 254L339 255L338 254z"/>
<path style="fill:#3f873d; stroke:none;" d="M605 254C589.984 276.768 574.485 303.823 564 329L552 313L552 445C566.346 441.542 580.24 430.888 593 423.573C598.196 420.593 604.737 417.606 607.54 411.996C611.456 404.16 609 390.602 609 382L609 314L609 273C609 266.243 610.128 259.139 605 254z"/>
<path style="fill:#69a45c; stroke:none;" d="M335 261L336 262L335 261z"/>
<path style="fill:#010101; stroke:none;" d="M805 285.692C794.151 288.321 782.66 298.041 773 303.579C769.66 305.493 764.23 307.434 762.603 311.21C758.406 320.953 762 339.385 762 350C762 353.626 760.959 359.282 763.028 362.471C767.199 368.901 780.406 373.532 787 377.281C792.554 380.438 802.333 389.016 809 387.257C819.853 384.394 831.242 374.832 841 369.281C844.305 367.401 849.749 365.363 851.397 361.671C855.652 352.138 852 333.45 852 323C852 319.298 853.023 313.66 850.972 310.379C846.931 303.913 833.528 299.213 827 295.424C821.371 292.158 811.828 284.038 805 285.692z"/>
<path style="fill:#69a45c; stroke:none;" d="M1141 303.92C1135.11 305.388 1119.06 313.511 1116.6 319.21C1114.38 324.361 1113.96 344.749 1117.03 349.471C1119.7 353.598 1126.86 356.019 1131 358.424C1135.23 360.881 1139.8 364.735 1145 363.336C1151.34 361.63 1167.65 353.572 1169.57 346.957C1171.32 340.891 1172.04 323.412 1168.26 318.213C1165.34 314.208 1159.18 312.004 1155 309.576C1151.02 307.266 1145.91 302.695 1141 303.92z"/>
<path style="fill:#01ff01; stroke:none;" d="M1154 309L1155 310L1154 309M1120 315L1121 316L1120 315z"/>
<path style="fill:#3f873d; stroke:none;" d="M386 331C377.212 351.395 363.566 370.915 352.201 390C348.75 395.794 339.16 407.001 339.593 413.906C339.818 417.504 344.367 419.163 347 420.734C354.619 425.278 362.306 429.733 370 434.15C391.979 446.766 414.361 458.886 436 472.062C447.033 478.779 460.727 489.88 474 490C469.842 476.859 460.574 464.035 453.86 452C440.886 428.742 428.001 405.412 415.309 382C406.922 366.53 398.93 342.945 386 331z"/>
<path style="fill:#01ff01; stroke:none;" d="M1131 358L1132 359L1131 358z"/>
<path style="fill:#69a45c; stroke:none;" d="M607 403L608 404L607 403M608.333 404.667L608.667 405.333L608.333 404.667z"/>
<path style="fill:#01ff01; stroke:none;" d="M338 414L339 415L338 414z"/>
<path style="fill:#69a45c; stroke:none;" d="M345 419L346 420L345 419M585 427L586 428L585 427z"/>
<path style="fill:#01ff01; stroke:none;" d="M362 429L363 430L362 429z"/>
<path style="fill:#69a45c; stroke:none;" d="M578 431L579 432L578 431z"/>
<path style="fill:#01ff01; stroke:none;" d="M573 434L574 435L573 434z"/>
<path style="fill:#69a45c; stroke:none;" d="M566 438L567 439L566 438M564 439L565 440L564 439M562 440L563 441L562 440z"/>
<path style="fill:#01ff01; stroke:none;" d="M388 444L389 445L388 444z"/>
<path style="fill:#3f873d; stroke:none;" d="M552 446L553 447L552 446z"/>
<path style="fill:#69a45c; stroke:none;" d="M397 449L398 450L397 449z"/>
<path style="fill:#01ff01; stroke:none;" d="M547 449L548 450L547 449M407 455L408 456L407 455z"/>
<path style="fill:#69a45c; stroke:none;" d="M421 463L422 464L421 463M626 468.529C614.425 471.186 603.208 480.323 593 486.15C569.955 499.304 547.013 512.641 524 525.85C512.076 532.695 496.512 538.43 492.761 553C489.929 563.998 492 577.678 492 589L492 660C492 673.028 488.842 690.917 494.353 703C498.485 712.061 507.819 716.298 516 721C534.261 731.495 553.108 743.659 575 736.779C587.036 732.997 594.503 722.315 595.826 710C599.323 677.458 596 642.746 596 610L596 578C596 574.562 597.116 568.584 592.852 567.318C589.412 566.297 577.448 565.547 575.028 568.603C573.088 571.052 574 576.09 574 579L574 606L574 685C574 695.385 576.256 707.787 565.996 714.258C555.875 720.643 542.438 710.397 534 705.397C528.582 702.186 521.931 699.469 517.148 695.366C512.619 691.48 514 684.359 514 679L514 635L514 583C514 576.244 512.187 566.377 514.603 560.015C517.502 552.386 531.386 547.738 538 543.799C560.47 530.417 583.311 517.586 606 504.579C612.25 500.995 626.155 489.202 633.424 490.36C642.07 491.737 652.419 500.823 660 505.15C680.711 516.972 701.317 528.978 722 540.85C729.706 545.274 745.709 550.995 749.972 559.043C752.928 564.624 751 574.812 751 581L751 634L751 679C751 685.068 752.356 691.983 746.941 696.096C723.713 713.739 694.379 726.844 669 741.281C658.811 747.077 645.472 758.525 634 760.817C623.87 762.841 611.439 747.51 602 744.714C597.017 743.239 592.33 746.708 588 748.691C585.517 749.829 580.52 750.818 579.176 753.459C577.153 757.434 586.548 761.321 589 762.719C599.884 768.924 613.405 781.134 626 782.812C649.386 785.927 673.64 764.288 693 753.281C709.729 743.77 726.305 733.993 743 724.421C751.45 719.577 762.438 715.144 768.2 706.996C775.734 696.342 773 680.312 773 668L773 586C773 574.108 775.533 558.967 770.179 548C765.737 538.901 756.378 534.815 748 530C731.65 520.604 715.39 511.043 699 501.719C684.608 493.532 670.359 485.093 656 476.85C646.552 471.427 637.345 465.926 626 468.529z"/>
<path style="fill:#01ff01; stroke:none;" d="M433 470L434 471L433 470z"/>
<path style="fill:#69a45c; stroke:none;" d="M435 471L436 472L435 471z"/>
<path style="fill:#01ff01; stroke:none;" d="M502 475L503 476L502 475M601 481L602 482L601 481M663 481L664 482L663 481M459 485L460 486L459 485z"/>
<path style="fill:#69a45c; stroke:none;" d="M463 487L464 488L463 487z"/>
<path style="fill:#01ff01; stroke:none;" d="M626 492L627 493L626 492M575 496L576 497L575 496M645 496L646 497L645 496M689 496L690 497L689 496M600 507L601 508L600 507M708 507L709 508L708 507M671 511L672 512L671 511M542 515L543 516L542 515M574 522L575 523L574 522M734 522L735 523L734 522M697 526L698 527L697 526z"/>
<path style="fill:#69a45c; stroke:none;" d="M809 529.465C779.967 534.562 787.102 579.844 816 574.532C844.779 569.241 837.897 524.393 809 529.465z"/>
<path style="fill:#01ff01; stroke:none;" d="M516 530L517 531L516 530M807 534L808 535L807 534z"/>
<path style="fill:#010101; stroke:none;" d="M808 534.532C784.919 540.022 794.57 575.318 817 569.442C839.51 563.545 830.352 529.216 808 534.532z"/>
<path style="fill:#01ff01; stroke:none;" d="M795 536L796 537L795 536M548 537L549 538L548 537z"/>
<path style="fill:#69a45c; stroke:none;" d="M804 539L804 565L809 565L809 555L815 555L816 565L823 565L819 553C827.665 539.87 813.639 539 804 539z"/>
<path style="fill:#01ff01; stroke:none;" d="M541 541L542 542L541 541M723 541L724 542L723 541z"/>
<path style="fill:#010101; stroke:none;" d="M809 544L809 550C816.235 549.448 816.439 544.244 809 544z"/>
<path style="fill:#01ff01; stroke:none;" d="M769 546L770 547L769 546M834 546L835 547L834 546M834 557L835 558L834 557M790 558L791 559L790 558M796 560L797 561L796 560z"/>
<path style="fill:#69a45c; stroke:none;" d="M656 563.424C643.495 565.071 631.016 566.774 621.09 575.468C607.599 587.284 605.866 612.651 620.015 624.671C636.465 638.646 663.088 635.753 683 639.807C691.837 641.606 705.626 646.137 701.107 658C694.039 676.55 651.031 674.359 638.015 664.442C631.664 659.603 632.507 651.334 627.436 646.603C624.5 643.865 611.761 643.678 608.603 646.179C599.623 653.292 613.692 674.108 619.004 678.815C636.322 694.159 668.477 694.844 690 690.335C715.044 685.088 742.711 652.789 717.815 629.329C703.169 615.527 676.642 616.168 658 613.08C650.144 611.779 632.17 609.859 634.601 598C638.452 579.217 678.492 582.045 689.96 590.638C695.481 594.775 695.634 603.512 700.513 606.972C703.63 609.183 716.435 609.192 719.552 606.972C726.093 602.313 716.582 584.404 713.239 580.015C701.369 564.427 674.198 561.028 656 563.424z"/>
<path style="fill:#01ff01; stroke:none;" d="M831 564L832 565L831 564M800 565L801 566L800 565M800 571L801 572L800 571M707 574L708 575L707 574M617 579L618 580L617 579M646 586L647 587L646 586M638 590L639 591L638 590M721 605L722 606L721 605M639 608L640 609L639 608M710 624L711 625L710 624M720 632L721 633L720 632M608 645L609 646L608 645M630 654L631 655L630 654M700 660L701 661L700 660M640 666L641 667L640 666M622 681L623 682L622 681M711 681L712 682L711 681M743 698L744 699L743 698M768 706L769 707L768 706M503 713L504 714L503 713M717 713L718 714L717 713M564 715L565 716L564 715M754 717L755 718L754 717M591 723L592 724L591 723M691 728L692 729L691 728M583 732L584 733L583 732M728 732L729 733L728 732M546 736L547 737L546 736M672 739L673 740L672 739M709 743L710 744L709 743M620 755L621 756L620 755M683 758L684 759L683 758M592 764L593 765L592 764M619 780L620 781L619 780z"/>
</svg>
