<?xml version="1.0" standalone="yes"?>
<svg xmlns="http://www.w3.org/2000/svg" width="1024" height="1024">
<path style="fill:#010101; stroke:none;" d="M0 0L0 86L1 86C2.76826 44.9225 44.9224 2.76813 86 1L59 0L0 0z"/>
<path style="fill:#3179c7; stroke:none;" d="M86 0.428223C74.8416 2.02606 64.0523 5.10577 54 10.2593C-16.9892 46.6529 0 134.899 0 201L0 760L0 893C0 924.696 -1.78072 954.745 17.439 982C47.6765 1024.88 91.9977 1024 139 1024L249 1024L716 1024L865 1024C890.956 1024 919.469 1027.29 945 1022.39C954.73 1020.52 964.354 1016.96 973 1012.14C1000.8 996.628 1019.83 968.628 1023.71 937C1025.51 922.382 1024 906.727 1024 892L1024 818L1024 256L1024 129C1024 96.1985 1025.19 65.2187 1003.55 38C972.299 -1.30029 930.59 0 885 0L769 0L311 0L161 0C136.663 0 110.083 -3.02039 86 0.428223z"/>
<path style="fill:#010101; stroke:none;" d="M938 0L938 1C979.078 2.76813 1021.23 44.9225 1023 86L1024 86L1024 0L938 0z"/>
<path style="fill:#0101ff; stroke:none;" d="M33 24L34 25L33 24M24 33L25 34L24 33M999 33L1000 34L999 33M1018 65L1019 66L1018 65z"/>
<path style="fill:#5893d2; stroke:none;" d="M806 474L806 475L809 475L806 474M782 475L782 476L789 476L782 475z"/>
<path style="fill:#feffff; stroke:none;" d="M634 818L634 889C634 895.132 631.352 909.563 635.603 914.362C640.224 919.577 651.57 921.855 658 924C679.269 931.095 701.652 935.451 724 937.089C788.392 941.809 883.206 940.545 920.127 876C927.924 862.37 933.069 846.43 935.75 831C937.946 818.358 939.051 804.821 937.83 792C936.367 776.634 933.142 760.901 926.191 747C905.212 705.041 858.445 684.536 818 666.306C794.837 655.865 769.571 647.127 751.015 628.961C740.293 618.464 733.378 603.93 738.951 589C745.553 571.315 763.752 562.285 781 558.13C816.086 549.679 854.838 556.799 888 569.424C898.88 573.567 908.272 580.94 919 585L919 516C919 510.456 921.569 495.95 917.397 491.843C913.105 487.62 902.681 486.378 897 484.884C877.583 479.779 857.09 476.236 837 475.996C766.054 475.148 676.959 478.906 642.309 554C624.614 592.35 627.505 644.667 652.756 679C670.87 703.629 697.656 720.793 725 733.702C758.443 749.49 811.07 762.142 827.687 799C842.158 831.101 809.901 853.367 782 858.079C726.33 867.483 679.936 846.607 634 818z"/>
<path style="fill:#5893d2; stroke:none;" d="M830 475L830 476L840 476L830 475M772 476L772 477L777 477L772 476M847 476L847 477L852 477L847 476M764 477L764 478L768 478L764 477M857 477L857 478L861 478L857 477M758 478L758 479L761 479L758 478M865 478L865 479L868 479L865 478M752 479L752 480L755 480L752 479M871 479L871 480L874 480L871 479M747.667 480.333L748.333 480.667L747.667 480.333M877 480L877 481L880 481L877 480M742.667 481.333L743.333 481.667L742.667 481.333M882 481L882 482L885 482L882 481M738.667 482.333L739.333 482.667L738.667 482.333M887.667 482.333L888.333 482.667L887.667 482.333M734.667 483.333L735.333 483.667L734.667 483.333M891.667 483.333L892.333 483.667L891.667 483.333M730.667 484.333L731.333 484.667L730.667 484.333M895.667 484.333L896.333 484.667L895.667 484.333M727 485L728 486L727 485M899.667 485.333L900.333 485.667L899.667 485.333z"/>
<path style="fill:#feffff; stroke:none;" d="M236 486L236 568L364 568L364 934L466 934L466 568L594 568L594 486L236 486z"/>
<path style="fill:#5893d2; stroke:none;" d="M723.667 486.333L724.333 486.667L723.667 486.333M902.667 486.333L903.333 486.667L902.667 486.333M720.667 487.333L721.333 487.667L720.667 487.333M906 487L907 488L906 487M718 488L719 489L718 488M909 488L910 489L909 488M715 489L716 490L715 489M912 489L913 490L912 489M712.667 490.333L713.333 490.667L712.667 490.333M915 490L916 491L915 490M710 491L711 492L710 491M918 491L919 492L918 491M708 492L709 493L708 492M919 492L919 553L918 586C922.344 582.204 920 569.527 920 564L920 515C920 508.049 921.701 498.436 919 492M706 493L707 494L706 493M703.667 494.333L704.333 494.667L703.667 494.333M701 495L702 496L701 495M699 496L700 497L699 496M697 497L698 498L697 497M696 498L697 499L696 498M694 499L695 500L694 499M692 500L693 501L692 500M690 501L691 502L690 501M689 502L690 503L689 502M687 503L688 504L687 503M686 504L687 505L686 504M684 505L685 506L684 505M683 506L684 507L683 506M681 507L682 508L681 507M680 508L681 509L680 508M678 509L679 510L678 509M677 510L678 511L677 510M676 511L677 512L676 511M673 513L674 514L673 513M672 514L673 515L672 514M671 515L672 516L671 515M670 516L671 517L670 516M661 525L662 526L661 525M660 526L661 527L660 526M659 527L660 528L659 527M658 528L659 529L658 528M656 531L657 532L656 531M655 532L656 533L655 532M653 535L654 536L653 535M652 536L653 537L652 536M651 538L652 539L651 538M650 539L651 540L650 539M649 541L650 542L649 541M648 542L649 543L648 542M647 544L648 545L647 544M646 546L647 547L646 546M644 549L645 550L644 549M643 551L644 552L643 551M642 553L643 554L642 553M641 555L642 556L641 555M796 555L796 556L803 556L796 555M823 555L823 556L830 556L823 555M789 556L789 557L792 557L789 556M835 556L835 557L839 557L835 556M783 557L783 558L786 558L783 557M842 557L842 558L845 558L842 557M640 558L641 559L640 558M779.667 558.333L780.333 558.667L779.667 558.333M848 558L848 559L851 559L848 558M775.667 559.333L776.333 559.667L775.667 559.333M853 559L853 560L856 560L853 559M639 560L640 561L639 560M772.667 560.333L773.333 560.667L772.667 560.333M858.667 560.333L859.333 560.667L858.667 560.333M769.667 561.333L770.333 561.667L769.667 561.333M862.667 561.333L863.333 561.667L862.667 561.333M767 562L768 563L767 562M866.667 562.333L867.333 562.667L866.667 562.333M638 563L639 564L638 563M764.667 563.333L765.333 563.667L764.667 563.333M870 563L871 564L870 563M762 564L763 565L762 564M873.667 564.333L874.333 564.667L873.667 564.333M637.333 565.667L637.667 566.333L637.333 565.667M760 565L761 566L760 565M876.667 565.333L877.333 565.667L876.667 565.333M758 566L759 567L758 566M879.667 566.333L880.333 566.667L879.667 566.333M757 567L758 568L757 567M882 567L883 568L882 567M636.333 568.667L636.667 569.333L636.333 568.667M755 568L756 569L755 568M885 568L886 569L885 568M754 569L755 570L754 569M887.667 569.333L888.333 569.667L887.667 569.333M890 570L891 571L890 570M751 571L752 572L751 571M892.667 571.333L893.333 571.667L892.667 571.333M635.333 572.667L635.667 573.333L635.333 572.667M750 572L751 573L750 572M895 572L896 573L895 572M749 573L750 574L749 573M897 573L898 574L897 573M748 574L749 575L748 574M899 574L900 575L899 574M747 575L748 576L747 575M901 575L902 576L901 575M634.333 576.667L634.667 577.333L634.333 576.667M746 576L747 577L746 576M903 576L904 577L903 576M745 577L746 578L745 577M905 577L906 578L905 577M744 578L745 579L744 578M907 578L908 579L907 578M910 580L911 581L910 580M633.333 581.667L633.667 582.333L633.333 581.667M742 581L743 582L742 581M912 581L913 582L912 581M741 583L742 584L741 583M915 583L916 584L915 583M916 584L917 585L916 584M740 585L741 586L740 585M632 587L632 590L633 590L632 587M739 587L740 588L739 587M738.333 589.667L738.667 590.333L738.333 589.667M737 594L737 597L738 597L737 594M631 596L631 608L632 608L631 596M737 603L737 607L738 607L737 603M631 609L631 621L632 621L631 609M738.333 609.667L738.667 610.333L738.333 609.667M739.333 612.667L739.667 613.333L739.333 612.667M740 615L741 616L740 615M741 617L742 618L741 617M742 618L743 619L742 618M743 620L744 621L743 620M744 621L745 622L744 621M746 624L747 625L746 624M747 625L748 626L747 625M632 626L632 629L633 629L632 626M748 626L749 627L748 626M749 627L750 628L749 627M750 628L751 629L750 628M751 629L752 630L751 629M752 630L753 631L752 630M753 631L754 632L753 631M633 632L633 635L634 635L633 632M754 632L755 633L754 632M757 634L758 635L757 634M758 635L759 636L758 635M761 637L762 638L761 637M634.333 638.667L634.667 639.333L634.333 638.667M762 638L763 639L762 638M765 640L766 641L765 640M635.333 642.667L635.667 643.333L635.333 642.667M768 642L769 643L768 642M770 643L771 644L770 643M771 644L772 645L771 644M773 645L774 646L773 645M636 646L637 647L636 646M775 646L776 647L775 646M777 647L778 648L777 647M778 648L779 649L778 648M637 649L638 650L637 649M780 649L781 650L780 649M782 650L783 651L782 650M784 651L785 652L784 651M638 652L639 653L638 652M786 652L787 653L786 652M788 653L789 654L788 653M639.333 654.667L639.667 655.333L639.333 654.667M791 654L792 655L791 654M793 655L794 656L793 655M795 656L796 657L795 656M640 657L641 658L640 657M797 657L798 658L797 657M800 658L801 659L800 658M641 659L642 660L641 659M802 659L803 660L802 659M804 660L805 661L804 660M642 661L643 662L642 661M806 661L807 662L806 661M809 662L810 663L809 662M811 663L812 664L811 663M643 664L644 665L643 664M813 664L814 665L813 664M644 665L645 666L644 665M816 665L817 666L816 665M818 666L819 667L818 666M645 667L646 668L645 667M820 667L821 668L820 667M822.667 668.333L823.333 668.667L822.667 668.333M646 669L647 670L646 669M825 669L826 670L825 669M827 670L828 671L827 670M647 671L648 672L647 671M829 671L830 672L829 671M648 672L649 673L648 672M831.667 672.333L832.333 672.667L831.667 672.333M834 673L835 674L834 673M649 674L650 675L649 674M836 674L837 675L836 674M650 675L651 676L650 675M838 675L839 676L838 675M840 676L841 677L840 676M651 677L652 678L651 677M842 677L843 678L842 677M652 678L653 679L652 678M844 678L845 679L844 678M846 679L847 680L846 679M848 680L849 681L848 680M654 681L655 682L654 681M850 681L851 682L850 681M655 682L656 683L655 682M852 682L853 683L852 682M656 683L657 684L656 683M854 683L855 684L854 683M657 684L658 685L657 684M856 684L857 685L856 684M858 685L859 686L858 685M860 686L861 687L860 686M659 687L660 688L659 687M861 687L862 688L861 687M660 688L661 689L660 688M863 688L864 689L863 688M661 689L662 690L661 689M865 689L866 690L865 689M662 690L663 691L662 690M867 690L868 691L867 690M663 691L664 692L663 691M869 691L870 692L869 691M870 692L871 693L870 692M872 693L873 694L872 693M874 694L875 695L874 694M875 695L876 696L875 695M877 696L878 697L877 696M669 697L670 698L669 697M670 698L671 699L670 698M880 698L881 699L880 698M671 699L672 700L671 699M881 699L882 700L881 699M672 700L673 701L672 700M883 700L884 701L883 700M673 701L674 702L673 701M884 701L885 702L884 701M674 702L675 703L674 702M887 703L888 704L887 703M677 704L678 705L677 704M888 704L889 705L888 704M678 705L679 706L678 705M679 706L680 707L679 706M891 706L892 707L891 706M681 707L682 708L681 707M892 707L893 708L892 707M682 708L683 709L682 708M893 708L894 709L893 708M683 709L684 710L683 709M685 710L686 711L685 710M686 711L687 712L686 711M897 711L898 712L897 711M898 712L899 713L898 712M689 713L690 714L689 713M899 713L900 714L899 713M900 714L901 715L900 714M692 715L693 716L692 715M901 715L902 716L901 715M694 716L695 717L694 716M902 716L903 717L902 716M695 717L696 718L695 717M903 717L904 718L903 717M697 718L698 719L697 718M904 718L905 719L904 718M905 719L906 720L905 719M700 720L701 721L700 720M906 720L907 721L906 720M702 721L703 722L702 721M907 721L908 722L907 721M704 722L705 723L704 722M908 722L909 723L908 722M705 723L706 724L705 723M909 723L910 724L909 723M707 724L708 725L707 724M910 724L911 725L910 724M709 725L710 726L709 725M911 725L912 726L911 725M711 726L712 727L711 726M912 726L913 727L912 726M713 727L714 728L713 727M913 727L914 728L913 727M715 728L716 729L715 728M716 729L717 730L716 729M718 730L719 731L718 730M915 730L916 731L915 730M720 731L721 732L720 731M916 731L917 732L916 731M722 732L723 733L722 732M917 732L918 733L917 732M724 733L725 734L724 733M726 734L727 735L726 734M918 734L919 735L918 734M728.667 735.333L729.333 735.667L728.667 735.333M919 735L920 736L919 735M730 736L731 737L730 736M733 737L734 738L733 737M920 737L921 738L920 737M735 738L736 739L735 738M921 738L922 739L921 738M737 739L738 740L737 739M739.667 740.333L740.333 740.667L739.667 740.333M922 740L923 741L922 740M742 741L743 742L742 741M744 742L745 743L744 742M923 742L924 743L923 742M746.667 743.333L747.333 743.667L746.667 743.333M924 743L925 744L924 743M749 744L750 745L749 744M751 745L752 746L751 745M925 745L926 746L925 745M753 746L754 747L753 746M756 747L757 748L756 747M926 747L927 748L926 747M758 748L759 749L758 748M760 749L761 750L760 749M927 749L928 750L927 749M762 750L763 751L762 750M764.667 751.333L765.333 751.667L764.667 751.333M767 752L768 753L767 752M928 752L929 753L928 752M769 753L770 754L769 753M771 754L772 755L771 754M929 754L930 755L929 754M773 755L774 756L773 755M775.667 756.333L776.333 756.667L775.667 756.333M930.333 756.667L930.667 757.333L930.333 756.667M778 757L779 758L778 757M780 758L781 759L780 758M782 759L783 760L782 759M931.333 759.667L931.667 760.333L931.333 759.667M784 760L785 761L784 760M786 761L787 762L786 761M788 762L789 763L788 762M932.333 762.667L932.667 763.333L932.333 762.667M789 763L790 764L789 763M791 764L792 765L791 764M793 765L794 766L793 765M933.333 765.667L933.667 766.333L933.333 765.667M794 766L795 767L794 766M796 767L797 768L796 767M798 768L799 769L798 768M799 769L800 770L799 769M934.333 769.667L934.667 770.333L934.333 769.667M801 770L802 771L801 770M802 771L803 772L802 771M805 773L806 774L805 773M935 773L935 776L936 776L935 773M806 774L807 775L806 774M808 775L809 776L808 775M809 776L810 777L809 776M810 777L811 778L810 777M936 779L936 782L937 782L936 779M815 781L816 782L815 781M816 782L817 783L816 782M937 785L937 790L938 790L937 785M820 787L821 788L820 787M821 788L822 789L821 788M823 791L824 792L823 791M824 792L825 793L824 792M825 794L826 795L825 794M826 796L827 797L826 796M827 798L828 799L827 798M938 799L938 807L939 807L938 799M828.333 800.667L828.667 801.333L828.333 800.667M829.333 803.667L829.667 804.333L829.333 803.667M830 808L830 812L831 812L830 808M630 814L630 816L632 814L630 814z"/>
<path style="fill:#feffff; stroke:none;" d="M631 815L631 816L634 817L634 814L631 815z"/>
<path style="fill:#5893d2; stroke:none;" d="M830 816L830 821L831 821L830 816M633 817L634 818L633 817M937 817L937 823L938 823L937 817M636 819L637 820L636 819M637 820L638 821L637 820M640 822L641 823L640 822M641 823L642 824L641 823M829 824L830 825L829 824M644 825L645 826L644 825M936 826L936 829L937 829L936 826M647 827L648 828L647 827M828.333 827.667L828.667 828.333L828.333 827.667M650 829L651 830L650 829M652 830L653 831L652 830M827 830L828 831L827 830M653 831L654 832L653 831M655 832L656 833L655 832M826 832L827 833L826 832M935.333 832.667L935.667 833.333L935.333 832.667M657 833L658 834L657 833M658 834L659 835L658 834M825 834L826 835L825 834M660 835L661 836L660 835M824 835L825 836L824 835M662 836L663 837L662 836M664 837L665 838L664 837M934.333 837.667L934.667 838.333L934.333 837.667M666 838L667 839L666 838M822 838L823 839L822 838M668 839L669 840L668 839M821 839L822 840L821 839M670 840L671 841L670 840M820 840L821 841L820 840M672 841L673 842L672 841M819 841L820 842L819 841M933.333 841.667L933.667 842.333L933.333 841.667M674 842L675 843L674 842M818 842L819 843L818 842M676.667 843.333L677.333 843.667L676.667 843.333M817 843L818 844L817 843M679 844L680 845L679 844M815 844L816 845L815 844M681 845L682 846L681 845M814 845L815 846L814 845M932.333 845.667L932.667 846.333L932.333 845.667M684 846L685 847L684 846M686.667 847.333L687.333 847.667L686.667 847.333M811 847L812 848L811 847M689 848L690 849L689 848M809 848L810 849L809 848M931.333 848.667L931.667 849.333L931.333 848.667M692 849L693 850L692 849M807 849L808 850L807 849M695 850L696 851L695 850M805 850L806 851L805 850M697.667 851.333L698.333 851.667L697.667 851.333M803 851L804 852L803 851M930.333 851.667L930.667 852.333L930.333 851.667M701 852L702 853L701 852M801 852L802 853L801 852M704.667 853.333L705.333 853.667L704.667 853.333M798 853L799 854L798 853M708.667 854.333L709.333 854.667L708.667 854.333M795.667 854.333L796.333 854.667L795.667 854.333M929.333 854.667L929.667 855.333L929.333 854.667M712.667 855.333L713.333 855.667L712.667 855.333M792 855L793 856L792 855M716 856L716 857L719 857L716 856M788.667 856.333L789.333 856.667L788.667 856.333M721 857L721 858L725 858L721 857M783 857L783 858L786 858L783 857M928 857L929 858L928 857M728 858L728 859L732 859L728 858M777 858L777 859L780 859L777 858M736 859L736 860L743 860L736 859M766 859L766 860L773 860L766 859M927 860L928 861L927 860M926 862L927 863L926 862M925.333 864.667L925.667 865.333L925.333 864.667M924 867L925 868L924 867M923 869L924 870L923 869M922 871L923 872L922 871M921 873L922 874L921 873M920 875L921 876L920 875M919 877L920 878L919 877M918 878L919 879L918 878M917 880L918 881L917 880M916 881L917 882L916 881M915 883L916 884L915 883M914 884L915 885L914 884M913 885L914 886L913 885M911 888L912 889L911 888M910 889L911 890L910 889M909 890L910 891L909 890M908 891L909 892L908 891M907 892L908 893L907 892M906 893L907 894L906 893M905 894L906 895L905 894M904 895L905 896L904 895M903 896L904 897L903 896M902 897L903 898L902 897M901 898L902 899L901 898M900 899L901 900L900 899M899 900L900 901L899 900M895 903L896 904L895 903M894 904L895 905L894 904M891 906L892 907L891 906M890 907L891 908L890 907M888 908L889 909L888 908M887 909L888 910L887 909M885 910L886 911L885 910M884 911L885 912L884 911M882 912L883 913L882 912M880 913L881 914L880 913M634 914L635 915L634 914M878 914L879 915L878 914M636 915L637 916L636 915M638 916L639 917L638 916M875 916L876 917L875 916M640 917L641 918L640 917M873 917L874 918L873 917M643 918L644 919L643 918M871 918L872 919L871 918M645 919L646 920L645 919M868.667 919.333L869.333 919.667L868.667 919.333M647.667 920.333L648.333 920.667L647.667 920.333M866 920L867 921L866 920M650 921L651 922L650 921M864 921L865 922L864 921M653 922L654 923L653 922M862 922L863 923L862 922M655.667 923.333L656.333 923.667L655.667 923.333M859 923L860 924L859 923M658.667 924.333L659.333 924.667L658.667 924.333M857 924L858 925L857 924M661.667 925.333L662.333 925.667L661.667 925.333M854 925L855 926L854 925M665 926L666 927L665 926M851 926L852 927L851 926M668.667 927.333L669.333 927.667L668.667 927.333M848 927L849 928L848 927M672 928L673 929L672 928M844.667 928.333L845.333 928.667L844.667 928.333M675.667 929.333L676.333 929.667L675.667 929.333M841.667 929.333L842.333 929.667L841.667 929.333M679 930L679 931L682 931L679 930M837.667 930.333L838.333 930.667L837.667 930.333M684.667 931.333L685.333 931.667L684.667 931.333M833.667 931.333L834.333 931.667L833.667 931.333M689.667 932.333L690.333 932.667L689.667 932.333M828.667 932.333L829.333 932.667L828.667 932.333M694.667 933.333L695.333 933.667L694.667 933.333M823.667 933.333L824.333 933.667L823.667 933.333M699 934L699 935L703 935L699 934M817 934L817 935L820 935L817 934M706 935L706 936L709 936L706 935M811 935L811 936L814 936L811 935M713 936L713 937L717 937L713 936M803 936L803 937L807 937L803 936M722 937L722 938L728 938L722 937M794 937L794 938L799 938L794 937z"/>
<path style="fill:#010101; stroke:none;" d="M0 938L0 1024L86 1024L86 1023C54.0591 1021.63 24.2533 996.297 10.2593 969C5.15083 959.036 4.42858 947.865 0 938z"/>
<path style="fill:#5893d2; stroke:none;" d="M735 938L735 939L743 939L735 938M780 938L780 939L788 939L780 938z"/>
<path style="fill:#010101; stroke:none;" d="M1023 938C1021.23 979.078 979.078 1021.23 938 1023L938 1024L1024 1024L1024 965L1023 938z"/>
<path style="fill:#0101ff; stroke:none;" d="M1018 958L1019 959L1018 958M24 990L25 991L24 990M999 990L1000 991L999 990M33 999L34 1000L33 999M990 999L991 1000L990 999M958 1018L959 1019L958 1018z"/>
</svg>
